<svg xmlns="http://www.w3.org/2000/svg" xmlns:xlink="http://www.w3.org/1999/xlink" preserveAspectRatio="xMidYMid" width="899" height="269" viewBox="0 0 899 269">
  <defs>
    <style>

      .cls-3 {
        fill: #000000;
      }

      .cls-4 {
        fill: #ffffff;
      }
    </style>
  </defs>
  <g id="blackappstoresvg">
    <path d="M40.000,-0.000 C40.000,-0.000 860.000,-0.000 860.000,-0.000 C882.091,-0.000 900.000,17.909 900.000,40.000 C900.000,40.000 900.000,230.000 900.000,230.000 C900.000,252.091 882.091,270.000 860.000,270.000 C860.000,270.000 40.000,270.000 40.000,270.000 C17.909,270.000 -0.000,252.091 -0.000,230.000 C-0.000,230.000 -0.000,40.000 -0.000,40.000 C-0.000,17.909 17.909,-0.000 40.000,-0.000 Z" id="path-1" class="cls-3" fill-rule="evenodd"/>
    <path d="M201.946,140.372 C201.946,169.895 228.265,180.069 228.265,180.069 C228.265,180.069 209.867,231.775 185.016,231.775 C173.601,231.775 164.728,224.095 152.701,224.095 C140.446,224.095 128.283,232.062 120.362,232.062 C97.669,232.062 69.000,183.014 69.000,143.588 C69.000,104.798 93.267,84.449 116.028,84.449 C130.824,84.449 142.307,92.969 149.999,92.969 C156.603,92.969 168.859,83.906 184.811,83.906 C212.272,83.906 223.074,103.415 223.074,103.415 C223.074,103.415 201.946,114.201 201.946,140.372 ZM148.367,81.844 C148.367,81.844 145.461,68.996 156.875,53.975 C169.711,37.083 187.557,37.000 187.557,37.000 C187.557,37.000 190.211,52.882 177.459,68.181 C163.843,84.517 148.367,81.844 148.367,81.844 Z" id="path-2" class="cls-4" fill-rule="evenodd"/>
    <path d="M768.299,176.580 C768.485,182.573 770.085,187.183 773.106,190.401 C776.123,193.623 780.377,195.233 785.864,195.233 C789.472,195.233 792.831,194.889 795.944,194.202 C799.055,193.511 802.395,192.367 805.966,190.767 C805.966,190.767 805.966,201.433 805.966,201.433 C802.800,202.961 799.597,204.041 796.357,204.674 C793.117,205.306 789.416,205.623 785.255,205.623 C775.756,205.623 768.328,202.821 762.970,197.217 C757.613,191.613 754.934,183.898 754.934,174.067 C754.934,163.978 757.419,156.046 762.391,150.274 C767.361,144.503 774.190,141.617 782.880,141.617 C790.945,141.617 797.314,144.094 801.991,149.045 C806.666,153.998 809.005,160.812 809.005,169.487 C809.005,169.487 809.005,176.580 809.005,176.580 C809.005,176.580 768.299,176.580 768.299,176.580 ZM792.601,155.497 C790.246,152.871 787.003,151.558 782.880,151.558 C778.757,151.558 775.453,152.880 772.968,155.524 C770.482,158.168 768.999,162.023 768.521,167.085 C768.521,167.085 796.245,167.085 796.245,167.085 C796.172,161.985 794.959,158.120 792.601,155.497 ZM740.244,153.737 C735.050,153.737 730.845,155.449 727.622,158.875 C724.400,162.301 722.789,166.751 722.789,172.224 C722.789,172.224 722.789,204.507 722.789,204.507 C722.789,204.507 709.810,204.507 709.810,204.507 C709.810,204.507 709.810,142.733 709.810,142.733 C709.810,142.733 719.973,142.733 719.973,142.733 C719.973,142.733 721.685,153.626 721.685,153.626 C721.685,153.626 722.348,153.626 722.348,153.626 C724.373,149.940 727.015,147.016 730.273,144.855 C733.533,142.697 737.039,141.617 740.795,141.617 C743.410,141.617 745.564,141.805 747.258,142.175 C747.258,142.175 745.987,154.408 745.987,154.408 C744.145,153.960 742.230,153.737 740.244,153.737 ZM665.846,205.623 C660.139,205.623 655.093,204.322 650.713,201.714 C646.331,199.106 642.961,195.364 640.606,190.487 C638.248,185.611 637.071,179.952 637.071,173.507 C637.071,163.492 639.611,155.673 644.693,150.051 C649.774,144.429 656.934,141.617 666.177,141.617 C675.015,141.617 682.009,144.494 687.164,150.247 C692.319,155.999 694.898,163.754 694.898,173.507 C694.898,183.599 692.337,191.472 687.220,197.135 C682.103,202.794 674.977,205.623 665.846,205.623 ZM665.956,152.340 C660.507,152.340 656.557,154.166 654.110,157.815 C651.660,161.465 650.436,166.694 650.436,173.507 C650.436,187.771 655.647,194.898 666.067,194.898 C676.375,194.898 681.531,187.771 681.531,173.507 C681.531,159.397 676.340,152.340 665.956,152.340 ZM622.959,204.981 C620.695,205.406 618.349,205.623 615.918,205.623 C603.620,205.623 597.471,199.070 597.471,185.963 C597.471,185.963 597.471,152.677 597.471,152.677 C597.471,152.677 589.131,152.677 589.131,152.677 C589.131,152.677 589.131,146.867 589.131,146.867 C589.131,146.867 598.078,142.065 598.078,142.065 C598.078,142.065 602.497,128.994 602.497,128.994 C602.497,128.994 610.505,128.994 610.505,128.994 C610.505,128.994 610.505,142.733 610.505,142.733 C610.505,142.733 627.902,142.733 627.902,142.733 C627.902,142.733 627.902,152.677 627.902,152.677 C627.902,152.677 610.505,152.677 610.505,152.677 C610.505,152.677 610.505,185.737 610.505,185.737 C610.505,188.905 611.288,191.242 612.852,192.747 C614.418,194.257 616.470,195.011 619.010,195.011 C622.177,195.011 625.343,194.509 628.510,193.502 C628.510,193.502 628.510,203.390 628.510,203.390 C627.075,204.023 625.225,204.552 622.959,204.981 ZM550.027,153.122 C552.052,154.464 555.697,156.231 560.964,158.428 C566.892,160.925 571.236,163.250 573.998,165.410 C576.760,167.571 578.785,170.009 580.074,172.725 C581.361,175.446 582.007,178.646 582.007,182.334 C582.007,189.592 579.410,195.291 574.220,199.422 C569.026,203.558 561.864,205.623 552.733,205.623 C543.603,205.623 536.128,204.190 530.311,201.320 C530.311,201.320 530.311,188.697 530.311,188.697 C533.991,190.451 537.904,191.829 542.047,192.833 C546.188,193.836 550.045,194.342 553.618,194.342 C558.845,194.342 562.702,193.334 565.189,191.323 C567.674,189.312 568.917,186.614 568.917,183.224 C568.917,180.174 567.775,177.584 565.493,175.464 C563.209,173.340 558.496,170.827 551.353,167.923 C543.989,164.907 538.796,161.465 535.777,157.592 C532.758,153.719 531.250,149.066 531.250,143.629 C531.250,136.813 533.643,131.453 538.429,127.543 C543.216,123.632 549.640,121.677 557.706,121.677 C565.437,121.677 573.131,123.390 580.791,126.816 C580.791,126.816 576.593,137.708 576.593,137.708 C569.413,134.655 563.006,133.128 557.373,133.128 C553.102,133.128 549.862,134.068 547.652,135.947 C545.444,137.830 544.338,140.313 544.338,143.405 C544.338,145.527 544.780,147.341 545.665,148.851 C546.548,150.358 548.002,151.782 550.027,153.122 ZM465.194,205.623 C457.462,205.623 451.460,202.812 447.187,197.189 C447.187,197.189 446.414,197.189 446.414,197.189 C446.930,202.401 447.187,205.569 447.187,206.685 C447.187,206.685 447.187,231.986 447.187,231.986 C447.187,231.986 434.209,231.986 434.209,231.986 C434.209,231.986 434.209,142.733 434.209,142.733 C434.209,142.733 444.703,142.733 444.703,142.733 C444.997,143.889 445.605,146.643 446.526,151.000 C446.526,151.000 447.187,151.000 447.187,151.000 C451.239,144.745 457.315,141.617 465.415,141.617 C473.038,141.617 478.973,144.410 483.227,149.994 C487.480,155.580 489.605,163.420 489.605,173.507 C489.605,183.599 487.442,191.472 483.116,197.135 C478.789,202.794 472.816,205.623 465.194,205.623 ZM472.678,157.675 C470.264,154.118 466.720,152.340 462.045,152.340 C456.890,152.340 453.125,153.868 450.751,156.921 C448.376,159.973 447.187,164.852 447.187,171.555 C447.187,171.555 447.187,173.507 447.187,173.507 C447.187,181.028 448.367,186.474 450.723,189.845 C453.080,193.217 456.928,194.898 462.267,194.898 C466.758,194.898 470.219,193.036 472.649,189.312 C475.080,185.593 476.296,180.287 476.296,173.394 C476.296,166.472 475.089,161.230 472.678,157.675 ZM394.718,205.623 C386.986,205.623 380.984,202.812 376.711,197.189 C376.711,197.189 375.938,197.189 375.938,197.189 C376.455,202.401 376.711,205.569 376.711,206.685 C376.711,206.685 376.711,231.986 376.711,231.986 C376.711,231.986 363.733,231.986 363.733,231.986 C363.733,231.986 363.733,142.733 363.733,142.733 C363.733,142.733 374.226,142.733 374.226,142.733 C374.522,143.889 375.129,146.643 376.050,151.000 C376.050,151.000 376.711,151.000 376.711,151.000 C380.763,144.745 386.839,141.617 394.939,141.617 C402.562,141.617 408.497,144.410 412.752,149.994 C417.004,155.580 419.129,163.420 419.129,173.507 C419.129,183.599 416.966,191.472 412.640,197.135 C408.314,202.794 402.340,205.623 394.718,205.623 ZM402.202,157.675 C399.789,154.118 396.244,152.340 391.570,152.340 C386.414,152.340 382.649,153.868 380.276,156.921 C377.900,159.973 376.711,164.852 376.711,171.555 C376.711,171.555 376.711,173.507 376.711,173.507 C376.711,181.028 377.891,186.474 380.247,189.845 C382.604,193.217 386.452,194.898 391.791,194.898 C396.283,194.898 399.744,193.036 402.173,189.312 C404.604,185.593 405.820,180.287 405.820,173.394 C405.820,166.472 404.613,161.230 402.202,157.675 ZM332.363,181.828 C332.363,181.828 301.489,181.828 301.489,181.828 C301.489,181.828 293.590,204.507 293.590,204.507 C293.590,204.507 279.673,204.507 279.673,204.507 C279.673,204.507 309.885,122.516 309.885,122.516 C309.885,122.516 324.245,122.516 324.245,122.516 C324.245,122.516 354.454,204.507 354.454,204.507 C354.454,204.507 340.426,204.507 340.426,204.507 C340.426,204.507 332.363,181.828 332.363,181.828 ZM321.317,148.096 C320.765,146.607 319.999,144.261 319.024,141.059 C318.048,137.857 317.375,135.511 317.009,134.022 C316.014,138.601 314.560,143.610 312.645,149.045 C312.645,149.045 305.355,170.326 305.355,170.326 C305.355,170.326 328.884,170.326 328.884,170.326 C328.884,170.326 321.317,148.096 321.317,148.096 Z" id="path-3" class="cls-4" fill-rule="evenodd"/>
    <path d="M750.882,69.729 C750.992,73.910 752.057,77.085 754.077,79.251 C756.097,81.418 758.943,82.501 762.612,82.501 C766.477,82.501 770.298,81.699 774.077,80.097 C774.077,80.097 774.077,84.905 774.077,84.905 C772.155,85.729 770.337,86.319 768.623,86.677 C766.908,87.034 764.839,87.212 762.414,87.212 C757.107,87.212 752.920,85.610 749.851,82.403 C746.782,79.197 745.248,74.745 745.248,69.047 C745.248,63.307 746.672,58.746 749.524,55.367 C752.373,51.986 756.202,50.297 761.007,50.297 C765.505,50.297 769.066,51.765 771.686,54.700 C774.307,57.636 775.618,61.508 775.618,66.318 C775.618,66.318 775.618,69.729 775.618,69.729 C775.618,69.729 750.882,69.729 750.882,69.729 ZM767.492,57.527 C765.964,55.719 763.780,54.814 760.940,54.814 C758.057,54.814 755.759,55.745 754.045,57.608 C752.330,59.471 751.320,62.050 751.013,65.343 C751.013,65.343 769.785,65.343 769.785,65.343 C769.785,61.942 769.022,59.336 767.492,57.527 ZM730.638,63.522 C730.638,60.621 729.971,58.454 728.639,57.023 C727.307,55.594 725.220,54.879 722.381,54.879 C718.603,54.879 715.846,55.898 714.110,57.933 C712.374,59.970 711.505,63.307 711.505,67.943 C711.505,67.943 711.505,86.563 711.505,86.563 C711.505,86.563 706.067,86.563 706.067,86.563 C706.067,86.563 706.067,35.998 706.067,35.998 C706.067,35.998 711.505,35.998 711.505,35.998 C711.505,35.998 711.505,51.304 711.505,51.304 C711.505,53.146 711.418,54.674 711.243,55.886 C711.243,55.886 711.570,55.886 711.570,55.886 C712.640,54.175 714.164,52.826 716.141,51.840 C718.117,50.855 720.372,50.362 722.906,50.362 C727.296,50.362 730.589,51.397 732.784,53.465 C734.979,55.535 736.076,58.822 736.076,63.328 C736.076,63.328 736.076,86.563 736.076,86.563 C736.076,86.563 730.638,86.563 730.638,86.563 C730.638,86.563 730.638,63.522 730.638,63.522 ZM693.191,87.212 C686.245,87.212 682.773,83.585 682.773,76.327 C682.773,76.327 682.773,55.139 682.773,55.139 C682.773,55.139 677.629,55.139 677.629,55.139 C677.629,55.139 677.629,52.540 677.629,52.540 C677.629,52.540 682.773,50.297 682.773,50.297 C682.773,50.297 685.067,42.693 685.067,42.693 C685.067,42.693 688.211,42.693 688.211,42.693 C688.211,42.693 688.211,50.946 688.211,50.946 C688.211,50.946 698.629,50.946 698.629,50.946 C698.629,50.946 698.629,55.139 698.629,55.139 C698.629,55.139 688.211,55.139 688.211,55.139 C688.211,55.139 688.211,76.098 688.211,76.098 C688.211,78.244 688.724,79.890 689.751,81.038 C690.777,82.187 692.186,82.761 693.977,82.761 C694.938,82.761 695.866,82.691 696.762,82.550 C697.658,82.409 698.367,82.262 698.892,82.111 C698.892,82.111 698.892,86.238 698.892,86.238 C698.302,86.520 697.434,86.752 696.287,86.936 C695.140,87.120 694.108,87.212 693.191,87.212 ZM648.341,63.522 C648.341,60.621 647.674,58.454 646.342,57.023 C645.010,55.594 642.923,54.879 640.084,54.879 C636.328,54.879 633.576,55.886 631.829,57.901 C630.082,59.916 629.208,63.242 629.208,67.877 C629.208,67.877 629.208,86.563 629.208,86.563 C629.208,86.563 623.770,86.563 623.770,86.563 C623.770,86.563 623.770,50.946 623.770,50.946 C623.770,50.946 628.193,50.946 628.193,50.946 C628.193,50.946 629.077,55.822 629.077,55.822 C629.077,55.822 629.340,55.822 629.340,55.822 C630.453,54.066 632.014,52.707 634.024,51.743 C636.033,50.779 638.272,50.297 640.740,50.297 C645.064,50.297 648.318,51.331 650.503,53.400 C652.687,55.469 653.779,58.778 653.779,63.328 C653.779,63.328 653.779,86.563 653.779,86.563 C653.779,86.563 648.341,86.563 648.341,86.563 C648.341,86.563 648.341,63.522 648.341,63.522 ZM597.595,87.212 C594.383,87.212 591.533,86.465 589.044,84.971 C586.553,83.476 584.631,81.331 583.278,78.536 C581.923,75.742 581.246,72.471 581.246,68.722 C581.246,62.916 582.709,58.394 585.636,55.155 C588.563,51.917 592.625,50.297 597.824,50.297 C602.846,50.297 606.838,51.955 609.797,55.269 C612.757,58.584 614.237,63.067 614.237,68.722 C614.237,74.528 612.763,79.062 609.815,82.323 C606.865,85.583 602.792,87.212 597.595,87.212 ZM605.834,58.405 C603.988,56.054 601.264,54.879 597.660,54.879 C594.099,54.879 591.413,56.038 589.601,58.357 C587.787,60.674 586.881,64.130 586.881,68.722 C586.881,73.271 587.798,76.739 589.634,79.121 C591.468,81.505 594.164,82.696 597.725,82.696 C601.285,82.696 603.988,81.510 605.834,79.137 C607.679,76.765 608.602,73.294 608.602,68.722 C608.602,64.194 607.679,60.756 605.834,58.405 ZM535.004,79.251 C537.024,81.418 539.870,82.501 543.539,82.501 C547.404,82.501 551.226,81.699 555.005,80.097 C555.005,80.097 555.005,84.905 555.005,84.905 C553.083,85.729 551.264,86.319 549.550,86.677 C547.835,87.034 545.766,87.212 543.342,87.212 C538.034,87.212 533.847,85.610 530.778,82.403 C527.710,79.197 526.175,74.745 526.175,69.047 C526.175,63.307 527.600,58.746 530.451,55.367 C533.301,51.986 537.129,50.297 541.934,50.297 C546.433,50.297 549.993,51.765 552.614,54.700 C555.234,57.636 556.545,61.508 556.545,66.318 C556.545,66.318 556.545,69.729 556.545,69.729 C556.545,69.729 531.810,69.729 531.810,69.729 C531.919,73.910 532.984,77.085 535.004,79.251 ZM550.713,65.343 C550.713,61.942 549.949,59.336 548.420,57.527 C546.891,55.719 544.707,54.814 541.868,54.814 C538.985,54.814 536.686,55.745 534.972,57.608 C533.257,59.471 532.247,62.050 531.941,65.343 C531.941,65.343 550.713,65.343 550.713,65.343 ZM511.203,35.998 C511.203,35.998 516.642,35.998 516.642,35.998 C516.642,35.998 516.642,86.563 516.642,86.563 C516.642,86.563 511.203,86.563 511.203,86.563 C511.203,86.563 511.203,35.998 511.203,35.998 ZM486.795,87.212 C484.458,87.212 482.323,86.785 480.390,85.929 C478.458,85.073 476.835,83.757 475.526,81.981 C475.526,81.981 475.132,81.981 475.132,81.981 C475.132,81.981 473.985,86.563 473.985,86.563 C473.985,86.563 470.087,86.563 470.087,86.563 C470.087,86.563 470.087,35.998 470.087,35.998 C470.087,35.998 475.526,35.998 475.526,35.998 C475.526,35.998 475.526,48.283 475.526,48.283 C475.526,51.033 475.438,53.503 475.263,55.691 C475.263,55.691 475.526,55.691 475.526,55.691 C478.059,52.139 481.815,50.362 486.795,50.362 C491.513,50.362 495.176,51.960 497.786,55.155 C500.396,58.351 501.702,62.873 501.702,68.722 C501.702,74.572 500.386,79.116 497.755,82.354 C495.122,85.594 491.469,87.212 486.795,87.212 ZM493.609,58.291 C491.971,56.016 489.438,54.879 486.009,54.879 C482.296,54.879 479.620,55.935 477.983,58.047 C476.345,60.159 475.526,63.718 475.526,68.722 C475.526,73.726 476.366,77.307 478.048,79.463 C479.730,81.618 482.426,82.696 486.140,82.696 C489.482,82.696 491.971,81.488 493.609,79.072 C495.248,76.657 496.067,73.186 496.067,68.658 C496.067,64.022 495.248,60.565 493.609,58.291 ZM453.773,81.493 C453.773,81.493 453.510,81.493 453.510,81.493 C451.719,83.726 449.934,85.236 448.154,86.026 C446.373,86.817 444.152,87.212 441.486,87.212 C437.926,87.212 435.136,86.303 433.117,84.483 C431.096,82.663 430.086,80.074 430.086,76.716 C430.086,69.524 435.885,65.755 447.482,65.408 C447.482,65.408 453.577,65.213 453.577,65.213 C453.577,65.213 453.577,63.003 453.577,63.003 C453.577,60.208 452.969,58.145 451.758,56.813 C450.545,55.480 448.607,54.814 445.943,54.814 C442.950,54.814 439.564,55.724 435.787,57.544 C435.787,57.544 434.115,53.417 434.115,53.417 C435.885,52.464 437.823,51.715 439.930,51.174 C442.038,50.633 444.152,50.362 446.270,50.362 C450.550,50.362 453.724,51.304 455.787,53.189 C457.851,55.073 458.884,58.096 458.884,62.256 C458.884,62.256 458.884,86.563 458.884,86.563 C458.884,86.563 454.853,86.563 454.853,86.563 C454.853,86.563 453.773,81.493 453.773,81.493 ZM453.445,69.047 C453.445,69.047 448.007,69.275 448.007,69.275 C443.681,69.427 440.564,70.092 438.653,71.273 C436.741,72.454 435.787,74.291 435.787,76.782 C435.787,78.731 436.382,80.215 437.572,81.234 C438.762,82.252 440.427,82.761 442.568,82.761 C445.954,82.761 448.612,81.840 450.545,79.998 C452.479,78.157 453.445,75.579 453.445,72.264 C453.445,72.264 453.445,69.047 453.445,69.047 ZM415.802,35.998 C415.802,35.998 421.240,35.998 421.240,35.998 C421.240,35.998 421.240,86.563 421.240,86.563 C421.240,86.563 415.802,86.563 415.802,86.563 C415.802,86.563 415.802,35.998 415.802,35.998 ZM401.584,44.902 C400.667,44.902 399.902,44.605 399.291,44.009 C398.680,43.414 398.374,42.509 398.374,41.296 C398.374,40.061 398.680,39.156 399.291,38.582 C399.902,38.009 400.667,37.721 401.584,37.721 C402.458,37.721 403.211,38.014 403.846,38.598 C404.478,39.183 404.795,40.082 404.795,41.296 C404.795,42.509 404.478,43.414 403.846,44.009 C403.211,44.605 402.458,44.902 401.584,44.902 ZM382.517,81.493 C382.517,81.493 382.255,81.493 382.255,81.493 C380.464,83.726 378.678,85.236 376.898,86.026 C375.118,86.817 372.895,87.212 370.231,87.212 C366.671,87.212 363.880,86.303 361.862,84.483 C359.840,82.663 358.830,80.074 358.830,76.716 C358.830,69.524 364.629,65.755 376.226,65.408 C376.226,65.408 382.321,65.213 382.321,65.213 C382.321,65.213 382.321,63.003 382.321,63.003 C382.321,60.208 381.714,58.145 380.502,56.813 C379.289,55.480 377.352,54.814 374.687,54.814 C371.694,54.814 368.309,55.724 364.531,57.544 C364.531,57.544 362.860,53.417 362.860,53.417 C364.629,52.464 366.567,51.715 368.675,51.174 C370.782,50.633 372.895,50.362 375.015,50.362 C379.295,50.362 382.468,51.304 384.532,53.189 C386.596,55.073 387.628,58.096 387.628,62.256 C387.628,62.256 387.628,86.563 387.628,86.563 C387.628,86.563 383.597,86.563 383.597,86.563 C383.597,86.563 382.517,81.493 382.517,81.493 ZM382.190,69.047 C382.190,69.047 376.751,69.275 376.751,69.275 C372.426,69.427 369.308,70.092 367.397,71.273 C365.486,72.454 364.531,74.291 364.531,76.782 C364.531,78.731 365.126,80.215 366.317,81.234 C367.507,82.252 369.172,82.761 371.312,82.761 C374.698,82.761 377.357,81.840 379.289,79.998 C381.223,78.157 382.190,75.579 382.190,72.264 C382.190,72.264 382.190,69.047 382.190,69.047 ZM335.768,86.563 C335.768,86.563 322.139,50.946 322.139,50.946 C322.139,50.946 327.969,50.946 327.969,50.946 C327.969,50.946 335.701,72.070 335.701,72.070 C337.448,77.009 338.476,80.215 338.782,81.689 C338.782,81.689 339.043,81.689 339.043,81.689 C339.283,80.540 340.042,78.162 341.320,74.555 C342.598,70.948 345.465,63.079 349.920,50.946 C349.920,50.946 355.751,50.946 355.751,50.946 C355.751,50.946 342.123,86.563 342.123,86.563 C342.123,86.563 335.768,86.563 335.768,86.563 ZM316.373,86.563 C316.373,86.563 310.409,71.452 310.409,71.452 C310.409,71.452 291.212,71.452 291.212,71.452 C291.212,71.452 285.314,86.563 285.314,86.563 C285.314,86.563 279.680,86.563 279.680,86.563 C279.680,86.563 298.616,38.858 298.616,38.858 C298.616,38.858 303.300,38.858 303.300,38.858 C303.300,38.858 322.139,86.563 322.139,86.563 C322.139,86.563 316.373,86.563 316.373,86.563 ZM303.104,51.759 C302.383,49.896 301.641,47.611 300.876,44.902 C300.396,46.982 299.707,49.269 298.812,51.759 C298.812,51.759 293.177,66.481 293.177,66.481 C293.177,66.481 308.674,66.481 308.674,66.481 C308.674,66.481 303.104,51.759 303.104,51.759 ZM404.271,86.563 C404.271,86.563 398.833,86.563 398.833,86.563 C398.833,86.563 398.833,50.946 398.833,50.946 C398.833,50.946 404.271,50.946 404.271,50.946 C404.271,50.946 404.271,86.563 404.271,86.563 Z" id="path-4" class="cls-4" fill-rule="evenodd"/>
  </g>
</svg>
