
<svg width="139px" height="33px" viewBox="23 33 139 33" version="1.1" xmlns="http://www.w3.org/2000/svg" xmlns:xlink="http://www.w3.org/1999/xlink">
    <!-- Generator: Sketch 40.1 (33804) - http://www.bohemiancoding.com/sketch -->
    <desc>Created with Sketch.</desc>
    <defs></defs>
    <g id="Logo" stroke="none" stroke-width="1" fill="none" fill-rule="evenodd" transform="translate(23.000000, 33.000000)">
        <g id="Group" fill="#FFFFFF">
            <g id="MainIcon" transform="translate(0.000000, 1.000000)">
                <polygon id="Path-2" opacity="0.3" transform="translate(14.641579, 17.404104) rotate(164.000000) translate(-14.641579, -17.404104) " points="10.7723256 5.69704776 2.89326724 13.3077866 2.88383202 29.11116 18.5931458 29.0653929 26.3993252 21.2509906 10.7820861 21.1977046"></polygon>
                <polygon id="Path-2-Copy-3" transform="translate(16.925791, 13.120497) rotate(164.000000) translate(-16.925791, -13.120497) " points="13.4597903 2.6335459 6.40188457 9.45109629 6.39343269 23.6074479 20.4655275 23.5664506 27.4581497 16.5664624 13.4685336 16.5187299"></polygon>
            </g>
            <path d="M33.156,0.9 L33.156,20.5 L37.58,20.5 L37.58,13.08 L46.428,13.08 L46.428,9.384 L37.58,9.384 L37.58,4.568 L47.212,4.568 L47.24,0.9 L33.156,0.9 Z M62.696,20.5 L62.668,10.672 C62.64,7.284 60.316,5.268 56.284,5.268 C53.652,5.268 51.72,5.884 49.48,7.004 L50.824,9.972 C52.392,9.104 53.96,8.656 55.304,8.656 C57.376,8.656 58.44,9.58 58.44,11.176 L58.44,11.456 L54.296,11.456 C50.6,11.484 48.556,13.164 48.556,15.992 C48.556,18.736 50.516,20.696 53.736,20.696 C55.836,20.696 57.46,19.996 58.468,18.736 L58.468,20.5 L62.696,20.5 Z M54.94,17.616 C53.484,17.616 52.588,16.86 52.588,15.712 C52.588,14.508 53.4,14.004 55.052,14.004 L58.44,14.004 L58.44,15.348 C58.188,16.636 56.76,17.616 54.94,17.616 L54.94,17.616 Z M73.728,22.18 L80.336,5.436 L76.024,5.436 L72.468,15.796 L68.52,5.436 L64.068,5.436 L70.312,20.192 L69.892,21.032 C69.472,21.928 68.8,22.376 67.904,22.376 C67.204,22.376 66.616,22.124 65.944,21.564 L64.124,24.672 C65.356,25.68 66.616,26.128 68.212,26.128 C70.816,26.128 72.664,24.84 73.728,22.18 L73.728,22.18 Z M80.056,5.464 L85.768,20.5 L90.192,20.5 L95.876,5.436 L91.592,5.436 L88.064,16.412 L84.508,5.436 L80.056,5.464 Z M104.584,5.296 C99.74,5.296 96.492,8.348 96.492,12.968 C96.492,17.56 99.74,20.668 104.584,20.668 C109.4,20.668 112.648,17.56 112.648,12.968 C112.648,8.348 109.4,5.296 104.584,5.296 L104.584,5.296 Z M104.584,8.88 C106.796,8.88 108.336,10.56 108.336,13.024 C108.336,15.488 106.796,17.168 104.584,17.168 C102.344,17.168 100.832,15.488 100.832,13.024 C100.832,10.56 102.344,8.88 104.584,8.88 L104.584,8.88 Z M119.816,8.152 L119.816,5.436 L115.504,5.436 L115.504,20.5 L119.816,20.5 L119.816,13.248 C119.816,10.7 121.72,9.048 124.8,9.328 L124.8,5.268 C122.56,5.296 120.852,6.304 119.816,8.152 L119.816,8.152 Z M136.644,9.86 L138.128,6.92 C136.448,5.856 134.32,5.24 132.248,5.24 C128.972,5.24 126.312,6.836 126.312,9.944 C126.312,15.236 134.124,13.948 134.124,16.356 C134.124,17.168 133.312,17.532 132.22,17.532 C130.568,17.532 128.552,16.86 126.984,15.656 L125.584,18.568 C127.292,19.94 129.672,20.668 132.108,20.668 C135.524,20.668 138.24,19.044 138.24,15.964 C138.268,10.644 130.316,11.792 130.316,9.524 C130.316,8.74 131.044,8.404 132.052,8.404 C133.312,8.404 134.992,8.936 136.644,9.86 L136.644,9.86 Z" id="Logo"></path>
        </g>
    </g>
</svg>
