<svg xmlns="http://www.w3.org/2000/svg" viewBox="0 0 1629.74 442.63"><defs><style>.cls-1{opacity:0.8;}.cls-2{font-size:55.92px;font-family:Aquawax-Black, Aquawax;}.cls-12,.cls-2,.cls-7{fill:#fff;}.cls-3{letter-spacing:-0.01em;}.cls-4{letter-spacing:-0.01em;}.cls-5{letter-spacing:-0.02em;}.cls-6{letter-spacing:-0.02em;}.cls-7{font-size:297.34px;font-family:Aquawax-Medium, Aquawax;}.cls-8{letter-spacing:-0.02em;}.cls-9{letter-spacing:0.02em;}.cls-10{letter-spacing:-0.02em;}.cls-11{fill:#58c0f4;}</style></defs><title>Website Logo - </title><g id="Layer_2" data-name="Layer 2"><g id="Layer_1-2" data-name="Layer 1"><text></text><text class="cls-1"></text><text class="cls-2" transform="translate(0.67 428.17)">WHERE <tspan class="cls-3" x="229.29" y="0">S</tspan><tspan x="261.47" y="0">TUDEN</tspan><tspan class="cls-4" x="463.11" y="0">T</tspan><tspan x="496.52" y="0">S </tspan><tspan class="cls-5" x="546.51" y="0">C</tspan><tspan x="587" y="0">ONNECT AND E</tspan><tspan class="cls-6" x="1039.45" y="0">X</tspan><tspan x="1080.3" y="0">CHANGE SERVICES</tspan></text><text class="cls-7" transform="translate(396.04 255.19)">F<tspan class="cls-8" x="168.74" y="0">a</tspan><tspan class="cls-9" x="324.54" y="0">y</tspan><tspan class="cls-10" x="498.93" y="0">v</tspan><tspan x="648.94" y="0">ors</tspan></text><path class="cls-11" d="M179.21,86.45a24.91,24.91,0,0,0-5.82,1.19L161.29,92A9.34,9.34,0,0,0,157,95.62L106.34,186c-.81,1.44-.17,2.25,1.42,1.8L255.47,146.2a3.07,3.07,0,0,1,3.75,2.06L302,291.12c.47,1.58,1.56,1.72,2.42.31l53.53-88.06a5.5,5.5,0,0,0,0-5.14L289.13,82.8a5.44,5.44,0,0,0-4.53-2.4Z"/><path class="cls-12" d="M172.55,83.75a8.44,8.44,0,0,1,4.34-3.46L313.47,40.59a3,3,0,0,1,3.71,2L356.27,178a8.08,8.08,0,0,1-.67,5.48l-49,84.48c-.83,1.43-1.87,1.3-2.32-.29l-37.87-134a3,3,0,0,0-3.7-2L126.1,171.22c-1.58.46-2.22-.34-1.42-1.78Z"/></g></g></svg>