
<svg width="138px" height="41px" viewBox="47 153 138 41" version="1.1" xmlns="http://www.w3.org/2000/svg" xmlns:xlink="http://www.w3.org/1999/xlink">
    <!-- Generator: Sketch 40.1 (33804) - http://www.bohemiancoding.com/sketch -->
    <desc>Created with Sketch.</desc>
    <defs>
        <rect id="path-1" x="0" y="0" width="138" height="41" rx="20.5"></rect>
        <mask id="mask-2" maskContentUnits="userSpaceOnUse" maskUnits="objectBoundingBox" x="0" y="0" width="138" height="41" fill="white">
            <use xlink:href="#path-1"></use>
        </mask>
    </defs>
    <g id="GetStartedButtonFooter" stroke="none" stroke-width="1" fill="none" fill-rule="evenodd" transform="translate(47.000000, 153.000000)">
        <path d="M32.9692093,23.916 C32.1692093,24.396 31.2252093,24.684 30.3932093,24.684 C28.1052093,24.684 26.2972093,22.94 26.2972093,20.7 C26.2972093,18.476 28.0892093,16.732 30.3772093,16.732 C31.5452093,16.732 32.7452093,17.212 33.6092093,18.012 L34.6812093,16.62 C33.5772093,15.66 31.9772093,15.052 30.3772093,15.052 C26.9852093,15.052 24.3772093,17.5 24.3772093,20.7 C24.3772093,23.9 26.9532093,26.38 30.2652093,26.38 C31.8012093,26.38 33.4812093,25.788 34.6172093,24.924 L34.6172093,20.796 L32.9692093,20.796 L32.9692093,23.916 Z M40.6812093,17.724 C38.1532093,17.74 36.3772093,19.484 36.3772093,22.06 C36.3772093,24.62 38.1052093,26.364 40.7292093,26.364 C42.2012093,26.364 43.4172093,25.836 44.2492093,24.924 L43.2732093,23.884 C42.6492093,24.524 41.8012093,24.876 40.8732093,24.876 C39.5292093,24.876 38.5212093,24.06 38.2332093,22.748 L44.6652093,22.748 C44.8892093,19.676 43.6732093,17.724 40.6812093,17.724 L40.6812093,17.724 Z M38.2012093,21.404 C38.3932093,20.044 39.3532093,19.196 40.6972093,19.196 C42.0892093,19.196 43.0012093,20.028 43.0652093,21.404 L38.2012093,21.404 Z M50.9372093,24.348 C50.4412093,24.588 50.0412093,24.716 49.6572093,24.716 C49.0812093,24.716 48.7452093,24.444 48.7452093,23.564 L48.7452093,19.484 L51.2572093,19.484 L51.2572093,18.108 L48.7452093,18.108 L48.7452093,15.772 L46.9212093,15.772 L46.9212093,18.108 L45.7212093,18.108 L45.7212093,19.484 L46.9212093,19.484 L46.9212093,23.9 C46.9212093,25.644 48.0252093,26.38 49.3052093,26.38 C50.0252093,26.38 50.7292093,26.156 51.4012093,25.756 L50.9372093,24.348 Z M64.1532093,17.836 L64.9372093,16.172 C63.8972093,15.484 62.4732093,15.02 61.0172093,15.02 C58.5852093,15.02 56.9372093,16.22 56.9372093,18.14 C56.9372093,22.124 62.9852093,20.732 62.9852093,23.228 C62.9852093,24.092 62.2012093,24.588 60.8892093,24.588 C59.6892093,24.588 58.2492093,24.012 57.0972093,22.956 L56.2812093,24.588 C57.4332093,25.644 59.0972093,26.364 60.8572093,26.364 C63.3212093,26.364 65.0812093,25.132 65.0812093,23.132 C65.0972093,19.1 59.0492093,20.412 59.0492093,17.964 C59.0492093,17.212 59.7692093,16.796 60.8732093,16.796 C61.7212093,16.796 62.9372093,17.1 64.1532093,17.836 L64.1532093,17.836 Z M71.5292093,24.348 C71.0332093,24.588 70.6332093,24.716 70.2492093,24.716 C69.6732093,24.716 69.3372093,24.444 69.3372093,23.564 L69.3372093,19.484 L71.8492093,19.484 L71.8492093,18.108 L69.3372093,18.108 L69.3372093,15.772 L67.5132093,15.772 L67.5132093,18.108 L66.3132093,18.108 L66.3132093,19.484 L67.5132093,19.484 L67.5132093,23.9 C67.5132093,25.644 68.6172093,26.38 69.8972093,26.38 C70.6172093,26.38 71.3212093,26.156 71.9932093,25.756 L71.5292093,24.348 Z M80.6012093,26.3 L80.5852093,20.716 C80.5692093,18.844 79.3372093,17.724 77.1452093,17.724 C75.5292093,17.724 74.6652093,18.092 73.4812093,18.796 L74.2332093,20.076 C75.0812093,19.5 75.9292093,19.212 76.7452093,19.212 C78.0892093,19.212 78.7772093,19.852 78.7772093,20.924 L78.7772093,21.18 L76.2012093,21.18 C74.1532093,21.196 72.9852093,22.188 72.9852093,23.74 C72.9852093,25.244 74.1372093,26.38 75.9772093,26.38 C77.2092093,26.38 78.1852093,26.012 78.7932093,25.26 L78.7932093,26.3 L80.6012093,26.3 Z M76.3612093,24.924 C75.3372093,24.924 74.7132093,24.428 74.7132093,23.66 C74.7132093,22.844 75.2732093,22.524 76.4732093,22.524 L78.7772093,22.524 L78.7772093,23.308 C78.6812093,24.236 77.6732093,24.924 76.3612093,24.924 L76.3612093,24.924 Z M84.9052093,19.484 L84.9052093,17.788 L83.0652093,17.788 L83.0652093,26.3 L84.9052093,26.3 L84.9052093,21.852 C85.0492093,20.396 86.1372093,19.388 87.8492093,19.484 L87.8492093,17.724 C86.5052093,17.724 85.4812093,18.332 84.9052093,19.484 L84.9052093,19.484 Z M93.7212093,24.348 C93.2252093,24.588 92.8252093,24.716 92.4412093,24.716 C91.8652093,24.716 91.5292093,24.444 91.5292093,23.564 L91.5292093,19.484 L94.0412093,19.484 L94.0412093,18.108 L91.5292093,18.108 L91.5292093,15.772 L89.7052093,15.772 L89.7052093,18.108 L88.5052093,18.108 L88.5052093,19.484 L89.7052093,19.484 L89.7052093,23.9 C89.7052093,25.644 90.8092093,26.38 92.0892093,26.38 C92.8092093,26.38 93.5132093,26.156 94.1852093,25.756 L93.7212093,24.348 Z M99.3852093,17.724 C96.8572093,17.74 95.0812093,19.484 95.0812093,22.06 C95.0812093,24.62 96.8092093,26.364 99.4332093,26.364 C100.905209,26.364 102.121209,25.836 102.953209,24.924 L101.977209,23.884 C101.353209,24.524 100.505209,24.876 99.5772093,24.876 C98.2332093,24.876 97.2252093,24.06 96.9372093,22.748 L103.369209,22.748 C103.593209,19.676 102.377209,17.724 99.3852093,17.724 L99.3852093,17.724 Z M96.9052093,21.404 C97.0972093,20.044 98.0572093,19.196 99.4012093,19.196 C100.793209,19.196 101.705209,20.028 101.769209,21.404 L96.9052093,21.404 Z M111.561209,14.428 L111.561209,19.26 C110.937209,18.268 109.913209,17.708 108.537209,17.708 C106.137209,17.708 104.489209,19.452 104.489209,22.012 C104.489209,24.604 106.121209,26.38 108.569209,26.38 C109.929209,26.38 110.953209,25.836 111.561209,24.844 L111.561209,26.3 L113.401209,26.3 L113.401209,14.428 L111.561209,14.428 Z M108.953209,24.844 C107.401209,24.844 106.345209,23.692 106.329209,22.076 C106.345209,20.444 107.417209,19.276 108.953209,19.276 C110.489209,19.276 111.561209,20.428 111.561209,22.076 C111.561209,23.692 110.489209,24.844 108.953209,24.844 L108.953209,24.844 Z" id="Get-Started" fill="#FFFFFF" opacity="0.980000019"></path>
        <use id="Rectangle-4-Copy" stroke="#FFFFFF" mask="url(#mask-2)" stroke-width="2" xlink:href="#path-1"></use>
    </g>
</svg>
